<svg xmlns="http://www.w3.org/2000/svg" width="450" height="450" viewBox="0 0 450 450" version="1.1">
	<path d="M 253.223 12.908 C 238.566 18.010, 226.340 26.656, 210.692 42.985 C 198.022 56.208, 188.584 68.578, 176.786 87.425 C 162.953 109.524, 145.481 146.323, 139.716 165.500 C 138.890 168.250, 137.250 172.918, 136.073 175.873 C 132.224 185.533, 127.219 203.303, 124.480 217.033 C 121.703 230.949, 119.745 235, 115.794 235 C 112.407 235, 101.583 239.125, 95.842 242.604 C 89.069 246.709, 80.409 255.167, 74.496 263.453 C 66.227 275.041, 59 291.974, 59 299.758 C 59 303.454, 63.476 309, 66.458 309 C 67.834 309, 67.955 309.764, 67.284 314.250 C 65.666 325.080, 66.660 343.793, 69.421 354.477 C 72.749 367.354, 80.343 382.822, 88.025 392.371 C 97.938 404.694, 114.239 415.662, 127.477 418.919 C 134.817 420.724, 157.912 420.088, 159.976 418.024 C 160.840 417.160, 164.387 415.664, 167.859 414.699 L 174.172 412.944 179.908 418.255 C 186.659 424.505, 196.912 430.133, 206 432.579 C 213.790 434.674, 231.361 434.927, 240.956 433.080 C 262.855 428.865, 285.171 417.750, 305.505 400.931 C 311.748 395.767, 313.218 395, 316.880 395 C 320.517 395, 321.771 394.359, 326.153 390.260 C 336.569 380.517, 351.360 358.296, 357.924 342.529 C 365.821 323.559, 369.151 303.680, 367.208 287.115 C 365.405 271.749, 360.849 260.934, 349.773 245.729 C 346.307 240.971, 345.471 238.924, 345.006 234.060 C 344.527 229.054, 344.873 227.129, 347.291 221.331 C 356.928 198.221, 362.665 175.326, 364.287 153.500 C 367.176 114.626, 364.379 87.268, 355.296 65.552 C 347.350 46.555, 329.129 27.210, 310.539 18.033 C 299.045 12.360, 288.195 10.013, 273.500 10.020 C 262.868 10.026, 260.556 10.355, 253.223 12.908 M 287 42.690 C 282.098 43.580, 268.004 51.090, 260.202 56.968 C 250.648 64.168, 233.725 81.638, 225.539 92.753 C 205.881 119.445, 187.850 155.681, 176.152 192 C 172.259 204.086, 168.861 216.255, 169.291 216.566 C 169.406 216.649, 172.875 217.722, 177 218.949 C 181.125 220.177, 187.024 222.520, 190.109 224.155 L 195.718 227.128 203.367 222.484 C 230.268 206.153, 262.288 200.290, 284.724 207.588 C 288.804 208.915, 290.263 209.027, 291.382 208.098 C 292.170 207.444, 294.422 202.317, 296.386 196.704 C 307.499 164.949, 313.494 132.824, 313.406 105.500 C 313.328 81.628, 309.786 63.575, 303.149 53.232 C 297.491 44.415, 293.141 41.575, 287 42.690 M 318.500 100 C 318.840 100.550, 319.316 101, 319.559 101 C 319.802 101, 320 100.550, 320 100 C 320 99.450, 319.523 99, 318.941 99 C 318.359 99, 318.160 99.450, 318.500 100 M 318.336 112 C 318.336 116.125, 318.513 117.813, 318.728 115.750 C 318.944 113.688, 318.944 110.313, 318.728 108.250 C 318.513 106.188, 318.336 107.875, 318.336 112 M 345.043 170.919 C 344.478 171.975, 344.350 173.026, 344.758 173.255 C 345.166 173.485, 344.975 173.549, 344.333 173.399 C 343.691 173.249, 342.917 173.773, 342.614 174.563 C 341.523 177.406, 339.822 176.085, 340.515 172.933 C 341.146 170.060, 341.062 169.945, 339.194 171.111 C 338.097 171.796, 337.428 172.951, 337.707 173.678 C 337.986 174.405, 337.753 175, 337.190 175 C 336.627 175, 335.940 174.438, 335.662 173.750 C 335.385 173.063, 335.122 173.470, 335.079 174.656 C 335.016 176.386, 335.427 176.701, 337.156 176.249 C 338.729 175.838, 339.101 176.028, 338.529 176.953 C 337.558 178.525, 341.986 182.409, 347.315 184.659 C 350.649 186.066, 351.109 186.662, 350.964 189.385 C 350.656 195.140, 350.811 195.623, 352.425 193.964 C 353.906 192.442, 359 175.985, 359 172.722 C 359 171.027, 358.857 171, 357.429 172.429 C 355.532 174.326, 354.917 174.416, 355.250 172.750 C 355.644 170.780, 350.723 171.872, 348.943 174.149 C 347.463 176.042, 347.406 175.963, 347.802 172.570 C 348.258 168.665, 346.737 167.755, 345.043 170.919 M 332.543 174.931 C 332.226 175.443, 332.350 176.098, 332.817 176.387 C 333.284 176.676, 333.667 176.257, 333.667 175.456 C 333.667 173.770, 333.351 173.623, 332.543 174.931 M 331.813 178.683 C 332.534 178.972, 333.397 178.936, 333.729 178.604 C 334.061 178.272, 333.471 178.036, 332.417 178.079 C 331.252 178.127, 331.015 178.364, 331.813 178.683 M 335.099 251.111 C 336.420 252.950, 339.847 258.964, 342.716 264.477 C 348.113 274.846, 349.389 275.351, 346.110 265.819 C 342.583 255.567, 340.204 252.062, 334.599 248.856 C 332.998 247.940, 333.077 248.295, 335.099 251.111 M 91.319 261.071 C 87.698 263.391, 83.284 269.849, 79.554 278.282 C 76.436 285.333, 76.260 287.744, 79.210 283 C 80.407 281.075, 84.446 274.887, 88.186 269.250 C 91.926 263.613, 94.877 259.008, 94.743 259.017 C 94.609 259.026, 93.069 259.951, 91.319 261.071 M 201.872 293.750 C 200.629 295.336, 200.664 295.371, 202.250 294.128 C 203.916 292.821, 204.445 292, 203.622 292 C 203.415 292, 202.627 292.788, 201.872 293.750 M 63 293.718 C 63 294.333, 62.727 295.548, 62.393 296.418 C 62.059 297.290, 62.297 298, 62.924 298 C 64.605 298, 65.442 295.042, 64.133 293.733 C 63.306 292.906, 63 292.903, 63 293.718 M 195.908 300.750 C 191.625 305.527, 189.674 308, 190.188 308 C 190.463 308, 192.584 305.750, 194.903 303 C 199.362 297.712, 200.086 296.090, 195.908 300.750 M 169.564 320.707 C 169.022 322.132, 169.136 322.247, 170.124 321.267 C 170.808 320.588, 171.115 319.781, 170.807 319.474 C 170.499 319.166, 169.940 319.721, 169.564 320.707 M 103.217 395.537 C 105.261 397.662, 107.194 399.139, 107.513 398.821 C 107.831 398.502, 106.159 396.764, 103.796 394.958 L 99.500 391.674 103.217 395.537 " stroke="none" fill="black" fill-rule="evenodd"/>
</svg>