<svg xmlns="http://www.w3.org/2000/svg" width="40" height="40" viewBox="0 0 40 40" version="1.1">
	<path d="M 12.266 4.534 C 8.801 7.999, 8.742 8.195, 9.246 14.482 C 9.620 19.129, 9.365 21.462, 8.323 22.950 C 6.583 25.433, 7.350 26.998, 10.309 27.007 C 12.310 27.013, 12.245 27.181, 9.567 28.946 C 6.381 31.047, 4.091 34.483, 4.035 37.250 C 4.003 38.845, 5.415 39, 20 39 C 34.585 39, 35.997 38.845, 35.965 37.250 C 35.909 34.483, 33.619 31.047, 30.433 28.946 C 27.959 27.316, 27.813 27.010, 29.500 26.991 C 30.600 26.979, 32.122 26.575, 32.883 26.094 C 34.050 25.354, 34.030 24.880, 32.752 23.057 C 31.645 21.476, 31.367 19.233, 31.715 14.698 C 32.126 9.353, 31.898 8.190, 30.057 6.250 C 28.883 5.012, 27.320 4, 26.583 4 C 25.847 4, 24.685 3.325, 24 2.500 C 23.315 1.675, 21.190 1, 19.278 1 C 16.630 1, 14.956 1.844, 12.266 4.534 M 22 12.557 C 20.625 13.312, 18.150 14.513, 16.500 15.225 C 12.333 17.022, 12.095 20.249, 15.853 24.007 C 19.568 27.722, 20.424 27.730, 24.077 24.077 C 26.981 21.173, 27.914 16.544, 26.393 12.582 C 25.683 10.731, 25.326 10.729, 22 12.557 M 16 29.192 C 16 30.148, 16.900 31.411, 18 32 C 20.506 33.341, 24 31.706, 24 29.192 C 24 27.832, 23.132 27.455, 20 27.455 C 16.868 27.455, 16 27.832, 16 29.192 " stroke="none" fill="black" fill-rule="evenodd"/>
</svg>